<svg width="250" height="138" viewBox="0 0 250 138" fill="none" xmlns="http://www.w3.org/2000/svg">
<g clip-path="url(#clip0_5_133)">
<path d="M167 7H84V90H167V7Z" fill="#EF233C"/>
<path d="M134.839 50.3227L147.382 40.8727V34H105V40.8727H135.221L129.303 45.2636H105V63.2091H117.695L125.313 57.4818L126.21 56.8136L128.425 55.1527L136.481 63.2091H147.706L134.839 50.3227ZM113.018 57.4818V51.1818H121.437L120.158 52.1364L114.297 56.5273L113.973 56.7755L113.018 57.4818Z" fill="white"/>
</g>
<g clip-path="url(#clip1_5_133)">
<path d="M182 127.586H182.066V127.538L182 127.586Z" fill="#EF233C"/>
<path d="M33.0879 111.079H47.6988C47.6988 111.079 49.3242 111.079 49.3242 112.631H56.4232C56.4232 110.996 56.4232 106 49.8202 106H31.603C25 106 25 110.996 25 112.631V120.997C25 122.648 25 127.586 31.5552 127.586H56.1885V114.324H39.7513V119.403H49.5856V122.648H33.1132C33.1132 122.648 31.4625 122.648 31.4625 121.025V112.631C31.4625 111.079 33.0879 111.079 33.0879 111.079Z" fill="#EF233C"/>
<path d="M76.419 106L63.2693 127.586H69.8161L72.8703 122.648H88.1709L91.1943 127.586H97.7734L84.6236 106H76.419ZM75.8978 117.569L80.5073 110.029L85.1434 117.569H75.8978Z" fill="#EF233C"/>
<path d="M123.834 122.225L113.15 106H104.938V127.586H111.541V114.193L119.757 127.586H127.942L136.127 114.193V127.586H142.73V106H134.518L123.834 122.225Z" fill="#EF233C"/>
<path d="M152.564 127.586H183.753V122.648H159.167V119.403H183.753V114.324H159.167V111.079H183.753V106H152.564V127.586Z" fill="#EF233C"/>
<path d="M215.539 118.064L224.775 111.079V106H193.587V111.079H215.826L211.471 114.324H193.587V127.586H202.931L208.53 123.353L209.188 122.857L210.816 121.627L216.739 127.586H225L215.539 118.064ZM199.487 123.353V118.698H205.684L204.746 119.403L200.427 122.648L200.187 122.829L199.484 123.353H199.487Z" fill="#EF233C"/>
</g>
<defs>
<clipPath id="clip0_5_133">
<rect width="83" height="83" fill="white" transform="translate(84 7)"/>
</clipPath>
<clipPath id="clip1_5_133">
<rect width="200" height="21.5859" fill="white" transform="translate(25 106)"/>
</clipPath>
</defs>
</svg>
